<svg width="174" height="31" viewBox="0 0 174 31" fill="none" xmlns="http://www.w3.org/2000/svg">
<path d="M18.0425 18.2966H12.0297V12.1992H18.0425V18.2966ZM6.01272 0C4.41839 0.00114048 2.88969 0.643914 1.76233 1.78716C0.634966 2.9304 0.00112396 4.48064 0 6.09744V9.1483C0 10.7654 0.633481 12.3164 1.76109 13.4598C2.88869 14.6033 4.41805 15.2457 6.01272 15.2457V7.01399C6.01384 6.77125 6.10941 6.53877 6.27868 6.36714C6.44794 6.19549 6.67717 6.09857 6.91654 6.09744H23.1556C23.3946 6.09857 23.6233 6.19563 23.7919 6.3674C23.9606 6.53917 24.0552 6.77165 24.0552 7.01399V9.16551H30.0722V0H6.01272ZM6.01272 21.3475H0V30.4957H6.01272V21.3475ZM24.0552 15.2457V23.4817C24.0552 23.7236 23.9604 23.9558 23.7916 24.1268C23.6229 24.2979 23.3942 24.3941 23.1556 24.3941H12.0297V30.4957H24.0552C24.8453 30.4957 25.6278 30.3379 26.3578 30.0314C27.0877 29.7247 27.751 29.2751 28.3098 28.7086C28.8686 28.1419 29.3117 27.4693 29.6141 26.7291C29.9164 25.9887 30.0722 25.1954 30.0722 24.3941V21.3475C30.0722 20.5462 29.9164 19.7527 29.6141 19.0125C29.3117 18.2721 28.8686 17.5995 28.3098 17.033C27.751 16.4663 27.0877 16.0169 26.3578 15.7102C25.6278 15.4035 24.8453 15.2457 24.0552 15.2457Z" fill="#F2F2F2"/>
<path d="M42.7793 18.469H46.8612C47.0311 20.5087 48.3634 21.8039 50.4596 21.8039C52.3605 21.8039 53.6378 20.9992 53.6378 19.4716C53.6378 15.5343 43.3435 18.555 43.3435 10.6461C43.3435 7.31119 46.1782 4.95312 50.205 4.95312C54.4864 4.95312 57.3804 7.4575 57.4907 11.2786H53.4382C53.2982 9.6994 52.1059 8.66236 50.205 8.66236C48.533 8.66236 47.485 9.46703 47.485 10.6461C47.485 14.846 57.9193 11.4507 57.9193 19.4157C57.9193 23.1852 54.9108 25.5389 50.4596 25.5389C46.0084 25.5389 42.9489 22.7505 42.7793 18.469Z" fill="#F2F2F2"/>
<path d="M77.0293 18.0721C77.0293 13.5582 79.5541 10.5977 83.7209 10.5977C85.4522 10.5977 86.8694 11.2603 87.6629 12.2629V10.8171H91.6304V25.3099H87.6629V23.7865C86.9543 24.8493 85.4522 25.538 83.776 25.538C79.5541 25.538 77.0293 22.5774 77.0293 18.0721ZM87.9175 18.0721C87.9175 15.6279 86.53 14.0186 84.3998 14.0186C82.2697 14.0186 80.9161 15.6279 80.9161 18.0721C80.9161 20.5161 82.3037 22.0997 84.3998 22.0997C86.496 22.0997 87.9175 20.4775 87.9175 18.0721Z" fill="#F2F2F2"/>
<path d="M64.5533 30.4958V24.0155C65.3171 24.9922 66.7089 25.5387 68.3214 25.5387C72.433 25.5387 75.2125 22.5781 75.2125 18.0642C75.2125 13.5503 72.6665 10.5898 68.6651 10.5898C66.8193 10.5898 65.402 11.2783 64.5533 12.4014V10.8179H60.6113V30.4958H64.5533ZM67.8419 14.0108C69.9126 14.0108 71.3299 15.6201 71.3299 18.0642C71.3299 20.5084 69.9126 22.0919 67.8419 22.0919C65.7711 22.0919 64.3242 20.4783 64.3242 18.0642C64.3242 15.6501 65.716 14.0108 67.8419 14.0108Z" fill="#F2F2F2"/>
<path d="M94.0664 18.0721C94.0664 13.8464 97.0154 10.5977 101.441 10.5977C105.184 10.5977 108.158 12.8955 108.413 16.2605H104.445C104.298 15.6031 103.928 15.0189 103.4 14.6093C102.873 14.1998 102.22 13.9908 101.556 14.0186C99.4341 14.0186 98.1611 15.714 98.1611 18.0721C98.1611 20.4301 99.4341 22.0997 101.594 22.0997C102.25 22.1302 102.897 21.9291 103.424 21.5307C103.951 21.1321 104.325 20.5608 104.484 19.9138H108.51C108.086 23.1325 105.137 25.5464 101.424 25.5464C97.0154 25.538 94.0664 22.2891 94.0664 18.0721Z" fill="#F2F2F2"/>
<path d="M123.988 20.3925C123.419 23.5295 120.699 25.5563 117.198 25.5563C112.352 25.5563 109.857 21.6835 109.857 18.0517C109.857 14.4199 112.068 10.6074 116.918 10.6074C121.963 10.6074 123.975 14.3726 123.975 17.6817C123.975 18.2281 123.949 18.6585 123.92 18.9726H113.638C113.922 21.0165 115.2 22.2816 117.181 22.2816C118.773 22.2816 119.821 21.6491 120.13 20.4098L123.988 20.3925ZM113.719 16.4251H120.041C120.028 16.0258 119.936 15.6331 119.771 15.2701C119.607 14.9068 119.372 14.5806 119.082 14.3104C118.792 14.04 118.451 13.8309 118.08 13.6954C117.71 13.5598 117.316 13.5003 116.923 13.5205C115.115 13.5205 114.037 14.4157 113.719 16.4251Z" fill="#F2F2F2"/>
<path d="M126.805 5.18555H134.973C139.216 5.18555 141.665 7.82763 141.665 11.5369C141.665 15.2461 139.179 17.8925 134.973 17.8925H131.086V25.311H126.805V5.18555ZM134.718 14.2994C136.7 14.2994 137.553 13.0084 137.553 11.5369C137.553 10.0652 136.705 8.7786 134.718 8.7786H131.086V14.2994H134.718Z" fill="#F2F2F2"/>
<path d="M142.762 18.0721C142.762 13.5582 145.287 10.5977 149.454 10.5977C151.18 10.5977 152.597 11.2603 153.395 12.2629V10.8171H157.363V25.3099H153.395V23.7865C152.687 24.8493 151.18 25.538 149.507 25.538C145.287 25.538 142.762 22.5774 142.762 18.0721ZM153.651 18.0721C153.651 15.6279 152.258 14.0186 150.132 14.0186C148.006 14.0186 146.644 15.6279 146.644 18.0721C146.644 20.5161 148.035 22.0997 150.132 22.0997C152.229 22.0997 153.651 20.4775 153.651 18.0721Z" fill="#F2F2F2"/>
<path d="M162.438 30.4962H166.201L167.984 25.2551L173.173 10.8184H169.121L166.141 20.1647L163.138 10.8184H159.111L164.3 25.195L162.438 30.4962Z" fill="#F2F2F2"/>
</svg>
